<svg xmlns="http://www.w3.org/2000/svg" viewBox="0 0 280 200" width="280" height="200" fill="none">
  <defs>
    <pattern id="grid" width="20" height="20" patternUnits="userSpaceOnUse">
      <path d="M 20 0 L 0 0 0 20" fill="none" stroke="#5e5e68" stroke-width="1.5"/>
    </pattern>
    <filter id="softblur" x="-50%" y="-50%" width="200%" height="200%">
      <feGaussianBlur stdDeviation="18"/>
    </filter>
    <mask id="gridMask">
      <rect width="280" height="200" fill="black"/>
      <rect x="60" y="45" width="160" height="110" rx="30" fill="white" filter="url(#softblur)"/>
    </mask>
  </defs>
  <rect width="280" height="200" fill="url(#grid)" mask="url(#gridMask)"/>
  <path d="M 55 135 C 70 135, 70 120, 85 120 C 100 120, 100 128, 115 128 C 130 128, 130 108, 145 108 C 160 108, 160 122, 175 122 C 190 122, 190 100, 205 100 C 215 100, 215 112, 225 112" fill="none" stroke="#5a6068" stroke-width="2" stroke-linecap="round"/>
  <path d="M 55 118 C 70 118, 70 90, 85 90 C 100 90, 100 108, 115 108 C 130 108, 130 75, 145 75 C 160 75, 160 92, 175 92 C 190 92, 190 68, 205 68 C 215 68, 215 86, 225 86" fill="none" stroke="#ee7626" stroke-width="2" stroke-linecap="round"/>
  <circle cx="55" cy="135" r="2" fill="#5a6068"/>
  <circle cx="85" cy="120" r="2" fill="#5a6068"/>
  <circle cx="115" cy="128" r="2" fill="#5a6068"/>
  <circle cx="145" cy="108" r="2" fill="#5a6068"/>
  <circle cx="205" cy="100" r="2" fill="#5a6068"/>
  <circle cx="225" cy="112" r="2" fill="#5a6068"/>
  <circle cx="55" cy="118" r="2" fill="#ee7626"/>
  <circle cx="85" cy="90" r="2" fill="#ee7626"/>
  <circle cx="115" cy="108" r="2" fill="#ee7626"/>
  <circle cx="145" cy="75" r="2" fill="#ee7626"/>
  <circle cx="205" cy="68" r="2" fill="#ee7626"/>
  <circle cx="225" cy="86" r="2" fill="#ee7626"/>
  <line x1="175" y1="50" x2="175" y2="160" stroke="#5a6068" stroke-width="1" stroke-dasharray="3 3"/>
  <circle cx="175" cy="92" r="4.5" fill="#ffffff" stroke="#ee7626" stroke-width="1.5"/>
  <circle cx="175" cy="122" r="4.5" fill="#ffffff" stroke="#5a6068" stroke-width="1.5"/>
</svg>
