<svg xmlns="http://www.w3.org/2000/svg" viewBox="0 0 280 200" width="280" height="200" fill="none">
  <defs>
    <pattern id="grid" width="20" height="20" patternUnits="userSpaceOnUse">
      <path d="M 20 0 L 0 0 0 20" fill="none" stroke="#5e5e68" stroke-width="1.5"/>
    </pattern>
    <filter id="softblur" x="-50%" y="-50%" width="200%" height="200%">
      <feGaussianBlur stdDeviation="18"/>
    </filter>
    <mask id="gridMask">
      <rect width="280" height="200" fill="black"/>
      <rect x="60" y="45" width="160" height="110" rx="30" fill="white" filter="url(#softblur)"/>
    </mask>
  </defs>
  <rect width="280" height="200" fill="url(#grid)" mask="url(#gridMask)"/>
  <rect x="76" y="56" width="12" height="3" rx="1.5" fill="#5a6068"/>
  <rect x="96" y="56" width="12" height="3" rx="1.5" fill="#5a6068"/>
  <rect x="116" y="56" width="12" height="3" rx="1.5" fill="#5a6068"/>
  <rect x="136" y="56" width="12" height="3" rx="1.5" fill="#5a6068"/>
  <rect x="156" y="56" width="12" height="3" rx="1.5" fill="#5a6068"/>
  <rect x="176" y="56" width="12" height="3" rx="1.5" fill="#5a6068"/>
  <rect x="196" y="56" width="12" height="3" rx="1.5" fill="#5a6068"/>
  <rect x="74" y="66" width="16" height="16" rx="3" fill="#5a6068"/>
  <rect x="94" y="66" width="16" height="16" rx="3" fill="#5a6068"/>
  <rect x="114" y="66" width="16" height="16" rx="3" fill="#5a6068"/>
  <rect x="134" y="66" width="16" height="16" rx="3" fill="#5a6068"/>
  <rect x="154" y="66" width="16" height="16" rx="3" fill="#5a6068"/>
  <rect x="74" y="86" width="16" height="16" rx="3" fill="#5a6068"/>
  <rect x="94" y="86" width="16" height="16" rx="3" fill="#ee7626"/>
  <rect x="114" y="86" width="16" height="16" rx="3" fill="#5a6068"/>
  <rect x="134" y="86" width="16" height="16" rx="3" fill="#5a6068"/>
  <rect x="154" y="86" width="16" height="16" rx="3" fill="#5a6068"/>
  <rect x="94" y="106" width="16" height="16" rx="3" fill="#5a6068"/>
  <rect x="114" y="106" width="16" height="16" rx="3" fill="#5a6068"/>
  <rect x="134" y="106" width="16" height="16" rx="3" fill="#5a6068"/>
  <rect x="154" y="106" width="16" height="16" rx="3" fill="#5a6068"/>
  <rect x="174" y="106" width="16" height="16" rx="3" fill="#5a6068"/>
  <rect x="74" y="126" width="16" height="16" rx="3" fill="#5a6068"/>
  <rect x="94" y="126" width="16" height="16" rx="3" fill="#5a6068"/>
  <rect x="134" y="126" width="16" height="16" rx="3" fill="#5a6068"/>
  <rect x="154" y="126" width="16" height="16" rx="3" fill="#5a6068"/>
  <rect x="174" y="126" width="16" height="16" rx="3" fill="#5a6068"/>
  <rect x="194" y="126" width="16" height="16" rx="3" fill="#5a6068"/>
</svg>
