<svg xmlns="http://www.w3.org/2000/svg" viewBox="0 0 280 200" width="280" height="200" fill="none">
  <defs>
    <pattern id="grid" width="20" height="20" patternUnits="userSpaceOnUse">
      <path d="M 20 0 L 0 0 0 20" fill="none" stroke="#94a0aa" stroke-width="1.5"/>
    </pattern>
    <filter id="softblur" x="-50%" y="-50%" width="200%" height="200%">
      <feGaussianBlur stdDeviation="18"/>
    </filter>
    <mask id="gridMask">
      <rect width="280" height="200" fill="black"/>
      <rect x="60" y="45" width="160" height="110" rx="30" fill="white" filter="url(#softblur)"/>
    </mask>
  </defs>
  <rect width="280" height="200" fill="url(#grid)" mask="url(#gridMask)"/>
  <g transform="translate(21 15) scale(0.85)">
  <rect x="60" y="55" width="84" height="46" rx="8" fill="#ffffff" stroke="#d1d5db"/>
  <rect x="68" y="63" width="26" height="3" rx="1.5" fill="#9ca3af"/>
  <rect x="70" y="79" width="6" height="18" rx="2" fill="#9ca3af"/>
  <rect x="80" y="73" width="6" height="24" rx="2" fill="#ee7626"/>
  <rect x="90" y="82" width="6" height="15" rx="2" fill="#9ca3af"/>
  <rect x="100" y="78" width="6" height="19" rx="2" fill="#9ca3af"/>
  <rect x="110" y="84" width="6" height="13" rx="2" fill="#9ca3af"/>
  <rect x="120" y="80" width="6" height="17" rx="2" fill="#9ca3af"/>
  <rect x="130" y="76" width="6" height="21" rx="2" fill="#9ca3af"/>
  <rect x="152" y="55" width="68" height="46" rx="8" fill="#ffffff" stroke="#d1d5db"/>
  <rect x="160" y="63" width="24" height="3" rx="1.5" fill="#9ca3af"/>
  <polygon points="200,68 206,68 203,62" fill="#ee7626"/>
  <rect x="160" y="76" width="34" height="9" rx="2" fill="#111827"/>
  <rect x="160" y="90" width="22" height="3" rx="1.5" fill="#9ca3af"/>
  <rect x="60" y="108" width="160" height="46" rx="8" fill="#ffffff" stroke="#d1d5db"/>
  <rect x="68" y="116" width="30" height="3" rx="1.5" fill="#9ca3af"/>
  <path d="M 68 142 C 78 142, 80 132, 90 132 C 100 132, 102 138, 112 138 C 122 138, 124 124, 134 124 C 144 124, 146 130, 156 130 C 166 130, 168 120, 178 120 C 188 120, 190 126, 200 126 C 208 126, 210 122, 218 122" fill="none" stroke="#ee7626" stroke-width="1.5" stroke-linecap="round"/>
  </g>
</svg>
