<svg xmlns="http://www.w3.org/2000/svg" viewBox="0 0 280 200" width="280" height="200" fill="none">
  <defs>
    <pattern id="grid" width="20" height="20" patternUnits="userSpaceOnUse">
      <path d="M 20 0 L 0 0 0 20" fill="none" stroke="#94a0aa" stroke-width="1.5"/>
    </pattern>
    <filter id="softblur" x="-50%" y="-50%" width="200%" height="200%">
      <feGaussianBlur stdDeviation="18"/>
    </filter>
    <mask id="gridMask">
      <rect width="280" height="200" fill="black"/>
      <rect x="60" y="45" width="160" height="110" rx="30" fill="white" filter="url(#softblur)"/>
    </mask>
  </defs>
  <rect width="280" height="200" fill="url(#grid)" mask="url(#gridMask)"/>
  <rect x="86" y="58" width="54" height="84" rx="2" fill="#ffffff" stroke="#d1d5db"/>
  <rect x="140" y="58" width="54" height="84" rx="2" fill="#ffffff" stroke="#d1d5db"/>
  <line x1="140" y1="58" x2="140" y2="142" stroke="#d1d5db" stroke-width="2"/>
  <rect x="92" y="66" width="38" height="4" rx="2" fill="#111827"/>
  <rect x="92" y="78" width="44" height="3" rx="1.5" fill="#9ca3af"/>
  <rect x="92" y="86" width="44" height="3" rx="1.5" fill="#9ca3af"/>
  <rect x="92" y="94" width="36" height="3" rx="1.5" fill="#9ca3af"/>
  <rect x="92" y="106" width="44" height="3" rx="1.5" fill="#9ca3af"/>
  <rect x="92" y="114" width="40" height="3" rx="1.5" fill="#9ca3af"/>
  <rect x="92" y="122" width="44" height="3" rx="1.5" fill="#9ca3af"/>
  <rect x="146" y="66" width="42" height="3" rx="1.5" fill="#9ca3af"/>
  <rect x="146" y="74" width="42" height="3" rx="1.5" fill="#9ca3af"/>
  <rect x="146" y="82" width="36" height="3" rx="1.5" fill="#9ca3af"/>
  <rect x="146" y="94" width="42" height="3" rx="1.5" fill="#9ca3af"/>
  <rect x="146" y="102" width="38" height="3" rx="1.5" fill="#9ca3af"/>
  <rect x="146" y="110" width="42" height="3" rx="1.5" fill="#9ca3af"/>
  <rect x="146" y="118" width="32" height="3" rx="1.5" fill="#9ca3af"/>
  <path d="M 178 58 L 192 58 L 192 80 L 185 75 L 178 80 Z" fill="#ee7626"/>
</svg>
