<svg xmlns="http://www.w3.org/2000/svg" viewBox="0 0 280 200" width="280" height="200" fill="none">
  <defs>
    <pattern id="grid" width="20" height="20" patternUnits="userSpaceOnUse">
      <path d="M 20 0 L 0 0 0 20" fill="none" stroke="#94a0aa" stroke-width="1.5"/>
    </pattern>
    <filter id="softblur" x="-50%" y="-50%" width="200%" height="200%">
      <feGaussianBlur stdDeviation="18"/>
    </filter>
    <mask id="gridMask">
      <rect width="280" height="200" fill="black"/>
      <rect x="60" y="45" width="160" height="110" rx="30" fill="white" filter="url(#softblur)"/>
    </mask>
    <clipPath id="tableClip"><rect x="50" y="40" width="180" height="120" rx="10"/></clipPath>
  </defs>
  <rect width="280" height="200" fill="url(#grid)" mask="url(#gridMask)"/>
  <g transform="translate(42 30) scale(0.7)">
  <rect x="50" y="40" width="180" height="120" rx="10" fill="#ffffff" stroke="#d1d5db"/>
  <g clip-path="url(#tableClip)">
    <rect x="62" y="53" width="38" height="5" rx="2" fill="#9ca3af"/>
    <rect x="124" y="53" width="22" height="5" rx="2" fill="#9ca3af"/>
    <rect x="178" y="53" width="30" height="5" rx="2" fill="#9ca3af"/>
    <line x1="50" y1="70" x2="230" y2="70" stroke="#e5e7eb"/>
    <rect x="50" y="76" width="180" height="22" fill="#f3f4f6"/>
    <rect x="62" y="84" width="44" height="6" rx="2" fill="#ee7626"/>
    <rect x="124" y="84" width="16" height="6" rx="2" fill="#9ca3af"/>
    <rect x="178" y="84" width="34" height="6" rx="2" fill="#9ca3af"/>
    <line x1="50" y1="98" x2="230" y2="98" stroke="#e5e7eb"/>
    <rect x="62" y="106" width="50" height="6" rx="2" fill="#9ca3af"/>
    <rect x="124" y="106" width="12" height="6" rx="2" fill="#9ca3af"/>
    <rect x="178" y="106" width="24" height="6" rx="2" fill="#9ca3af"/>
    <line x1="50" y1="120" x2="230" y2="120" stroke="#e5e7eb"/>
    <rect x="62" y="128" width="42" height="6" rx="2" fill="#9ca3af"/>
    <rect x="124" y="128" width="20" height="6" rx="2" fill="#9ca3af"/>
    <rect x="178" y="128" width="38" height="6" rx="2" fill="#9ca3af"/>
    <line x1="50" y1="142" x2="230" y2="142" stroke="#e5e7eb"/>
    <rect x="62" y="150" width="46" height="6" rx="2" fill="#9ca3af"/>
    <rect x="124" y="150" width="14" height="6" rx="2" fill="#9ca3af"/>
    <rect x="178" y="150" width="28" height="6" rx="2" fill="#9ca3af"/>
  </g>
  </g>
</svg>
